<svg width="32" height="30" viewBox="0 0 32 30" fill="none" xmlns="http://www.w3.org/2000/svg">
<path d="M4.49464 20.69C3.75738 20.6061 2.16912 19.8472 1.71413 17.4824C1.84051 16.7906 1.94162 15.1805 1.33497 14.2749C0.72831 13.3692 1.08219 12.3881 1.33497 12.0107C1.73519 11.7382 2.64938 11.1931 3.10438 11.1931C3.67312 11.1931 4.11547 10.9415 5.37934 9.80944C5.63211 9.55787 6.32724 9.13019 7.08556 9.43208M7.08556 9.43208L7.90708 7.98553C8.0124 8.04843 8.23568 7.80943 8.28624 6.35031C8.33679 4.89118 9.23414 4.14904 9.67649 3.96036C9.95033 3.72975 10.8645 3.49495 12.3306 4.40061C14.1632 5.53269 14.6688 4.84087 15.9326 4.40061C16.9437 4.04841 17.9548 4.63122 18.334 4.96665M7.08556 9.43208C6.58001 10.2916 5.77114 12.2623 6.58001 13.2686C6.83279 14.1941 7.66694 16.0937 8.98136 16.2875M18.334 4.96665C19.2398 4.04422 21.5316 2.12387 23.4527 1.82198C25.3737 1.5201 26.7808 1.15112 27.2443 1.00437M18.334 4.96665C17.9338 5.4698 17.2092 6.62703 17.5125 7.23081M27.2443 1.00437C27.8341 0.962441 28.8747 1.85972 28.3186 5.78426C28.2885 6.39884 28.2357 7.15573 28.1568 7.98553M27.2443 1.00437C27.5392 0.941477 27.8383 1.53268 26.6755 4.40061C26.1065 5.28112 25.0191 7.52013 25.2221 9.43208C25.3491 9.85137 25.5776 10.8535 25.4758 11.5076C25.7853 12.999 26.1301 16.2075 25.0325 17.1095M20.293 14.8409C20.9249 13.8975 21.9487 12.0107 20.9881 12.0107L20.293 11.1931M20.293 14.8409V14.2749C19.7369 12.7654 20.0613 11.5914 20.293 11.1931M20.293 14.8409C19.1536 16.796 19.4162 18.8017 19.8766 20.0611M20.293 11.1931C20.5965 11.0188 21.1149 10.8445 21.6201 10.9379M28.1568 7.98553C27.8483 11.2318 27.1424 15.594 25.854 16.9164L25.3485 17.4824C25.4006 17.6502 25.4455 17.8615 25.4758 18.1114M28.1568 7.98553C28.2681 7.59 28.6175 7.15762 29.2665 7.60252M24.1799 23.5831C23.8485 24.1928 23.4422 24.8248 22.9471 25.4699C21.8518 26.7068 19.0038 29.1429 16.375 28.9919C15.3547 29.057 13.5642 28.7453 12.0147 27.4635M24.1799 23.5831C28.1994 22.8284 30.2568 18.8242 30.7831 16.9164C31.1623 15.0086 31.592 10.7025 30.2776 8.74025C29.8816 8.14914 29.5462 7.79431 29.2665 7.60252M24.1799 23.5831C25.4387 21.2669 25.6164 19.273 25.4758 18.1114M29.2665 7.60252L30.2776 9.80944C30.5249 10.5851 30.669 12.1742 29.2665 12.3252C29.0137 12.409 28.3817 13.0673 27.8762 15.0296C27.3707 16.9919 26.0653 17.9017 25.4758 18.1114M25.4758 18.1114C25.4333 17.9017 25.3232 17.4195 25.2221 17.168M25.2221 17.168C24.3163 17.6292 22.3784 18.9919 21.8728 20.7529C21.6411 21.1931 21.0513 22.1617 20.5458 22.5139C19.9138 22.9542 16.1854 25.2812 16.375 26.1617C16.5267 26.8661 15.5114 27.5873 14.9847 27.8598C14.3528 27.6712 13.0005 27.0674 12.6466 26.1617C12.0045 25.9521 10.5906 25.407 10.072 24.9038M25.2221 17.168C25.1966 17.1045 25.1275 17.0904 25.0325 17.1095M10.072 24.9038C9.92647 24.5912 9.79384 24.2563 9.67649 23.8976C9.36483 23.6332 9.62318 23.2023 12.0147 23.0197M10.072 24.9038C10.219 25.2196 10.3791 25.5127 10.5499 25.7843M25.0325 17.1095C24.7511 17.1663 24.2416 17.5146 23.9582 17.734C24.9693 14.7151 23.5369 12.5348 22.6943 11.822C22.4239 11.2613 22.0263 11.0131 21.6201 10.9379M17.5125 7.23081C17.8916 7.98553 21.0513 8.60728 21.6201 10.9379M17.5125 7.23081C16.6067 7.29371 14.5803 7.20566 13.7209 6.35031C12.6466 5.28112 10.6876 6.53899 11.3827 7.98553C11.9388 9.14277 10.7406 10.8157 10.072 11.5076C9.63507 12.8912 9.02339 15.7843 10.072 16.2875M10.072 16.2875C11.3827 16.9164 12.773 17.1051 13.7209 18.4887C14.1615 19.1319 15.146 19.68 16.2486 20.0066M10.072 16.2875H8.98136M19.8766 20.0611C20.0086 20.4222 20.1569 20.722 20.293 20.9416C19.7874 21.5957 17.4703 22.5558 16.375 22.9542C14.45 22.9089 13.0373 22.9416 12.0147 23.0197M19.8766 20.0611C18.9436 20.4649 17.5178 20.3825 16.2486 20.0066M8.98136 16.2875C8.32837 16.4761 6.89598 16.7026 6.39043 16.0988C5.7585 15.3441 4.43144 17.2309 5.18976 17.4824C5.27402 17.6501 5.30351 18.0359 4.7474 18.2371C4.1913 18.4384 4.68421 19.2015 5.00018 19.5579C6.03234 20.524 8.88026 22.5689 12.0147 23.0197M5.63211 20.3126C5.12657 20.6061 3.91325 21.2057 3.10438 21.256C2.09328 21.3189 0.955799 22.5768 2.8516 23.8976M2.8516 23.8976L5.18976 25.4699C6.03919 26.1827 8.12574 27.5579 9.67649 27.3567C11.2272 27.1554 11.8814 27.344 12.0147 27.4635M2.8516 23.8976C3.7995 24.6103 5.83433 25.9227 6.39043 25.4699C7.26761 25.8263 9.32754 26.3881 10.5499 25.7843M12.0147 27.4635C11.4848 27.0251 10.983 26.4733 10.5499 25.7843M15.4903 16.4761C15.642 17.2812 15.4692 17.5244 15.3639 17.5453C15.1111 17.7969 14.8457 18.3629 15.8063 18.6145C15.9748 18.6411 16.2992 18.9568 16.2486 20.0066M11.0036 12.0107C10.7297 12.409 10.2326 13.4195 10.4348 14.2749C10.3716 13.8777 10.3969 12.8689 11.0036 12.0107ZM18.8395 6.22452C19.0502 5.70041 19.7622 4.51382 20.9249 3.96036C20.3351 4.29579 19.0923 5.21822 18.8395 6.22452ZM29.772 16.7277C29.6246 17.3986 29.1653 18.8661 28.5081 19.3692C27.6866 19.9982 29.456 18.929 29.772 16.7277ZM23.7054 22.5139C23.558 23.0799 23.1114 24.3001 22.5048 24.6523C22.905 24.1491 23.7054 23.017 23.7054 22.5139ZM9.23414 21.0673C9.44478 21.3189 10.182 21.8095 11.4459 21.7592C10.835 21.7382 9.53747 21.5705 9.23414 21.0673ZM2.66202 16.2875C2.5567 16.8116 2.44716 17.8975 2.8516 18.0485C2.70415 17.9017 2.4598 17.3441 2.66202 16.2875Z" stroke="#F6D3D3"/>
</svg>
